# xmcd CD database file
#
# Track frame offsets:
#	187
#	15857
#	28457
#	39810
#	86150
#	97777
#	110097
#	118932
#	139037
#
# Disc length: 2095 seconds
#
# Revision: 4
# Processed by: cddbd v1.5.2PL0 Copyright (c) Steve Scherf et al.
# Submitted via: CDex 1.51
#
DISCID=6c082d09
DTITLE=Barry Goldberg and Mike Bloomfield - Two Jews Blues
DYEAR=1969
DGENRE=Blues Rock
TTITLE0=You´re Still My Baby
TTITLE1=That´s Alright Mama
TTITLE2=Maxwell Street Shuffle
TTITLE3=Blues For Barry And
TTITLE4=Jimi The Fox
TTITLE5=A Lighter Blue
TTITLE6=On The Road Again
TTITLE7=Twice A Man
TTITLE8=Spirit Of Trane
EXTD=YEAR: 1969
EXTT0=
EXTT1=
EXTT2=
EXTT3=
EXTT4=
EXTT5=
EXTT6=
EXTT7=
EXTT8=
PLAYORDER=
